<svg version="1.1" id="Layer_1" xmlns="http://www.w3.org/2000/svg" xmlns:xlink="http://www.w3.org/1999/xlink" x="0px" y="0px"
	 width="100%" viewBox="0 0 100 100" enable-background="new 0 0 100 100" xml:space="preserve">
<path fill="#0D0D0D" opacity="1.000000" stroke="none" 
	d="
M101.000000,57.000000 
	C101.000000,57.444336 101.000000,57.888672 100.629410,58.677952 
	C99.494255,60.284973 98.729675,61.547050 97.592728,62.862904 
	C96.469757,62.952988 95.719177,62.989292 94.972672,62.732254 
	C94.857086,61.967350 94.737411,61.495789 94.617744,61.024231 
	C94.452309,61.055569 94.286873,61.086903 94.121437,61.118240 
	C94.084122,61.748173 94.046806,62.378105 93.633698,63.015831 
	C92.506210,63.018150 91.754532,63.012680 90.791275,62.776222 
	C89.716759,63.005741 88.853798,63.466240 87.533585,63.981171 
	C83.391937,63.982059 79.707565,63.928513 76.017685,63.554272 
	C75.853905,62.437355 75.695633,61.641132 75.537361,60.844913 
	C75.283279,60.838837 75.029198,60.832760 74.775116,60.826687 
	C74.502396,61.792107 74.229675,62.757526 73.561615,63.772430 
	C72.105171,63.889660 71.044067,63.957409 70.019753,63.922264 
	C70.056541,63.819374 70.127853,63.612793 70.071411,63.298435 
	C69.577316,62.409451 69.139648,61.834824 68.701981,61.260197 
	C68.131836,61.857929 67.561684,62.455658 66.618988,63.093132 
	C65.499107,63.099442 64.751778,63.066010 63.963669,62.706429 
	C62.886845,59.667999 61.576797,59.587132 59.556206,61.981834 
	C53.410278,61.621586 47.718075,61.252346 41.945358,60.582222 
	C39.888161,59.056152 37.911480,57.830963 35.851795,56.554333 
	C35.267036,57.850170 34.623848,59.275490 33.635269,60.739838 
	C32.118340,60.121113 30.946798,59.463360 29.914963,58.504177 
	C31.702682,56.788807 33.350697,55.374863 35.412247,53.995720 
	C38.554066,54.300812 41.282352,54.571106 44.331879,54.912521 
	C45.087124,54.947285 45.521133,54.910927 46.234604,55.150043 
	C50.465828,56.983601 53.156918,55.939114 54.604836,51.002262 
	C51.530609,51.362759 48.842533,51.677979 46.059982,51.618668 
	C44.647747,50.890697 43.329983,50.537258 41.663692,50.214779 
	C39.166328,50.708439 37.017487,51.171143 34.596649,51.524979 
	C33.976490,50.317829 33.628330,49.219551 33.574821,48.027908 
	C34.479092,47.390347 35.088711,46.846146 36.017792,46.186443 
	C39.780422,41.958572 44.598888,43.226303 49.450935,42.933495 
	C54.606079,43.026203 59.303722,43.021095 64.433456,43.125347 
	C67.517433,43.282433 70.169327,43.330158 73.154083,43.645882 
	C78.296516,44.028751 83.106064,44.143616 88.009300,44.576092 
	C89.664841,46.906975 91.226707,48.920250 92.514977,51.158001 
	C90.474037,52.200336 88.706688,53.018192 86.826813,53.569168 
	C85.827202,52.819561 84.940109,52.336838 83.691666,51.867233 
	C79.532234,51.810051 75.734161,51.739758 71.841492,51.342205 
	C68.011551,50.948231 64.271629,50.754799 60.543533,50.889145 
	C59.368546,50.931484 57.741226,51.572571 57.226639,52.463024 
	C56.842567,53.127640 57.914654,54.633751 58.338287,55.765129 
	C59.828117,55.125450 61.317947,54.485767 62.642921,53.916870 
	C65.237656,57.041615 68.971596,57.063782 73.410660,56.089188 
	C77.324028,56.104164 80.818726,56.061260 84.608391,55.983650 
	C85.622345,55.623215 86.341324,55.297485 87.457077,54.978779 
	C92.235893,55.657204 96.617950,56.328602 101.000000,57.000000 
M86.653603,61.059292 
	C86.419510,60.572784 86.185417,60.086273 85.951324,59.599762 
	C85.729553,59.795300 85.291397,60.118591 85.319679,60.166496 
	C85.585846,60.617329 85.931656,61.021145 86.653603,61.059292 
M82.286026,59.596066 
	C81.954102,59.999382 81.599113,60.388195 81.323296,60.826794 
	C81.293259,60.874561 81.719971,61.209557 81.934822,61.411327 
	C82.179428,60.936146 82.424034,60.460968 82.286026,59.596066 
M55.342430,55.628628 
	C55.294983,55.321808 55.247540,55.014992 55.200096,54.708172 
	C55.116756,55.031044 55.033417,55.353912 55.342430,55.628628 
z"/>
<path fill="#E9E9E9" opacity="1.000000" stroke="none" 
	d="
M35.698334,46.301949 
	C35.088711,46.846146 34.479092,47.390347 33.195408,48.049095 
	C29.331039,52.802517 25.017529,51.618797 20.521851,50.801113 
	C17.554855,50.261471 14.613540,50.985584 13.514753,54.866089 
	C9.036290,54.936764 5.018145,54.968384 1.000000,55.000000 
	C1.000000,41.979103 1.000000,28.958210 1.374160,15.480568 
	C4.504272,16.028135 7.260224,17.032450 10.013370,18.490013 
	C9.410281,22.721422 9.047196,26.558275 8.131526,30.258383 
	C7.450276,33.011230 6.053205,35.586929 4.623123,39.107700 
	C9.130281,37.651901 12.237894,36.802425 15.198526,35.593117 
	C16.032141,35.252621 16.434671,33.856747 17.407948,33.013748 
	C22.188181,34.045441 26.595394,35.008327 31.011431,36.334679 
	C32.579613,39.899410 34.138973,43.100677 35.698334,46.301949 
M26.735706,50.476681 
	C26.899538,50.468170 27.063372,50.459660 27.227203,50.451149 
	C27.118179,50.401676 27.009155,50.352203 26.735706,50.476681 
z"/>
<path fill="#1A1A1A" opacity="1.000000" stroke="none" 
	d="
M80.000000,101.000000 
	C75.974815,101.000000 71.949638,101.000000 67.443192,100.619080 
	C65.249535,98.675026 63.537125,97.111885 61.824718,95.548752 
	C62.111809,95.211372 62.398903,94.873993 62.685993,94.536613 
	C63.421413,95.006081 64.156830,95.475555 64.892250,95.945023 
	C65.186676,95.615051 65.481102,95.285080 65.775520,94.955109 
	C65.100784,94.234001 64.493729,93.430054 63.735798,92.810745 
	C62.531231,91.826508 61.225994,90.965477 59.980530,90.026810 
	C59.997711,90.001305 60.032337,89.950470 60.411919,89.952042 
	C64.492043,88.607285 68.192581,87.260948 71.893120,85.914619 
	C71.909737,85.700043 71.926346,85.485466 71.942963,85.270889 
	C68.975189,85.467247 66.007416,85.663605 63.024967,85.482651 
	C63.016010,84.098915 63.021732,83.092484 63.354843,82.043610 
	C64.122299,81.998192 64.562378,81.995232 65.066437,82.310272 
	C66.097626,82.446426 67.064827,82.264587 68.060257,81.863647 
	C68.088478,81.644539 68.092323,81.202721 68.434052,81.020493 
	C70.489365,80.827309 72.211769,80.922485 73.914505,80.780952 
	C76.582840,80.559166 79.237877,80.177475 82.331818,79.940521 
	C84.212799,80.181068 85.660530,80.344597 87.096611,80.860382 
	C88.373344,87.662292 93.586739,84.005356 96.983780,85.369522 
	C96.664246,87.119797 96.334030,88.553368 95.594284,89.974327 
	C94.541183,89.838394 93.892265,89.737877 93.254913,89.588158 
	C88.208611,88.402779 83.336327,90.490906 84.658966,93.310341 
	C85.623009,93.453735 86.601158,93.599220 88.969093,93.951431 
	C86.836884,95.043587 85.925308,95.510513 84.759911,95.743195 
	C80.874481,95.639084 77.345680,90.454445 73.365387,95.384720 
	C74.860031,96.353058 76.494942,98.222519 77.520866,97.933105 
	C81.432053,96.829811 79.523720,99.756050 80.000000,101.000000 
M68.682022,96.141106 
	C68.610168,96.183365 68.538315,96.225624 68.682022,96.141106 
z"/>
<path fill="#595959" opacity="1.000000" stroke="none" 
	d="
M87.108253,80.508125 
	C85.660530,80.344597 84.212799,80.181068 82.278976,79.621262 
	C80.898216,78.755165 80.003555,78.285347 78.809647,77.591034 
	C73.036484,75.894714 67.562576,74.422874 62.057384,72.563965 
	C60.808128,66.892746 55.784309,69.892014 53.067764,67.695747 
	C54.414692,66.298294 55.688988,65.232674 57.352066,64.122482 
	C58.518616,64.004265 59.296375,63.930634 60.422516,63.866684 
	C61.848740,63.595104 62.926590,63.313843 64.004440,63.032578 
	C64.751778,63.066010 65.499107,63.099442 66.860550,63.330452 
	C68.359047,63.556282 69.243454,63.584538 70.127853,63.612793 
	C70.127853,63.612793 70.056541,63.819374 70.018173,64.294380 
	C70.823586,67.024010 71.667374,69.278633 72.428825,71.313263 
	C74.834190,72.561180 77.318741,73.769341 79.725174,75.117004 
	C83.640007,77.309395 86.651482,75.941872 88.231895,72.065697 
	C88.928482,70.357231 91.223518,68.727890 93.105988,68.217438 
	C95.575417,67.547836 98.354240,68.019295 101.000000,68.000000 
	C101.000000,69.066673 101.000000,70.133339 100.670311,71.577621 
	C99.901917,71.915108 99.463219,71.875000 98.908897,71.497620 
	C96.755447,71.082054 94.666351,70.737457 92.715904,71.112999 
	C92.229355,71.206688 92.189995,73.622910 91.947716,75.257996 
	C91.948853,75.735260 91.947372,75.926163 91.954803,76.273544 
	C91.963730,76.430031 91.993431,76.742088 91.623734,76.793427 
	C89.834717,77.876144 88.415390,78.907516 87.073105,80.071548 
	C87.150154,80.204193 87.108253,80.508125 87.108253,80.508125 
z"/>
<path fill="#454545" opacity="1.000000" stroke="none" 
	d="
M101.000000,67.571533 
	C98.354240,68.019295 95.575417,67.547836 93.105988,68.217438 
	C91.223518,68.727890 88.928482,70.357231 88.231895,72.065697 
	C86.651482,75.941872 83.640007,77.309395 79.725174,75.117004 
	C77.318741,73.769341 74.834190,72.561180 72.428825,71.313263 
	C71.667374,69.278633 70.823586,67.024010 69.981384,64.397270 
	C71.044067,63.957409 72.105171,63.889660 73.900146,63.859642 
	C75.097069,63.889908 75.560127,63.882439 76.023186,63.874969 
	C79.707565,63.928513 83.391937,63.982059 87.867920,64.004433 
	C89.440628,63.651241 90.221741,63.329224 91.002846,63.007206 
	C91.754532,63.012680 92.506210,63.018150 93.873260,63.029335 
	C94.488617,63.035042 94.968590,63.025600 94.968590,63.025600 
	C95.719177,62.989292 96.469757,62.952988 97.904343,62.797806 
	C99.392227,62.452614 100.196114,62.226307 101.000000,62.000000 
	C101.000000,63.714359 101.000000,65.428719 101.000000,67.571533 
z"/>
<path fill="#636363" opacity="1.000000" stroke="none" 
	d="
M56.963280,64.167053 
	C55.688988,65.232674 54.414692,66.298294 52.784065,67.941605 
	C47.951252,68.653412 43.474770,68.787537 38.608269,68.889732 
	C35.390358,69.108711 32.562473,69.359619 29.484528,69.625809 
	C28.900946,69.624435 28.567419,69.607758 28.064020,69.262405 
	C25.924221,68.627045 23.954298,68.320343 22.168091,67.693878 
	C25.791941,66.272240 29.232073,65.170364 32.672207,64.068489 
	C32.750401,63.843925 32.828590,63.619366 32.906784,63.394802 
	C27.912256,62.970543 22.917730,62.546288 17.460814,62.103436 
	C11.665616,62.056557 6.332808,62.028278 1.000000,62.000000 
	C1.000000,61.555553 1.000000,61.111111 1.468581,60.324814 
	C4.419838,59.990250 6.907966,60.106342 9.384058,59.982254 
	C14.593369,59.721203 19.796364,59.334141 25.406803,58.992580 
	C26.892796,58.985916 27.973934,58.985470 29.223465,58.893394 
	C29.391859,58.801765 29.775259,58.805607 29.775259,58.805607 
	C30.946798,59.463360 32.118340,60.121113 34.017601,60.824867 
	C36.492252,61.203678 38.239182,61.536488 40.351997,62.061729 
	C46.133011,62.891792 51.548145,63.529423 56.963280,64.167053 
z"/>
<path fill="#EEEEEE" opacity="1.000000" stroke="none" 
	d="
M17.034927,32.944939 
	C16.434671,33.856747 16.032141,35.252621 15.198526,35.593117 
	C12.237894,36.802425 9.130281,37.651901 4.623123,39.107700 
	C6.053205,35.586929 7.450276,33.011230 8.131526,30.258383 
	C9.047196,26.558275 9.410281,22.721422 10.324744,18.330029 
	C14.620689,14.849081 11.394196,10.392177 12.954662,6.622483 
	C12.605262,4.496006 12.302630,2.748003 12.000000,1.000000 
	C12.444445,1.000000 12.888889,1.000000 13.754480,1.348046 
	C15.114574,3.797648 16.053520,5.899204 16.752237,8.248714 
	C16.421951,10.695549 16.093151,12.925416 16.372311,15.076379 
	C16.469030,15.821626 18.074369,16.371077 18.995319,17.005016 
	C19.000000,17.000076 18.990480,17.008799 19.035587,17.352392 
	C20.050100,19.470785 21.019505,21.245584 21.888931,23.377563 
	C19.245293,23.734743 16.701632,23.734743 13.474627,23.734743 
	C13.898349,25.670887 12.269843,29.407042 16.999130,31.326649 
	C17.018108,32.082062 17.026518,32.513500 17.034927,32.944939 
z"/>
<path fill="#727272" opacity="1.000000" stroke="none" 
	d="
M101.000000,21.000000 
	C101.000000,24.692909 101.000000,28.385818 100.599487,32.597168 
	C99.124313,33.032200 98.049644,32.948792 96.649063,32.622734 
	C91.554260,32.243107 86.785385,32.106117 82.015488,31.581715 
	C83.234337,23.233728 91.800858,18.633928 101.000000,21.000000 
z"/>
<path fill="#C7C7C7" opacity="1.000000" stroke="none" 
	d="
M28.000000,1.000000 
	C35.020947,1.000000 42.041897,1.000000 49.515411,1.391817 
	C49.659412,3.833222 49.350845,5.882810 48.671684,7.951467 
	C46.869553,8.646970 45.438019,9.323403 43.680069,9.961063 
	C42.233223,10.276310 41.112789,10.630330 39.627087,10.977214 
	C35.522587,8.630320 31.783358,6.290563 28.042767,3.581898 
	C28.027603,2.475327 28.013802,1.737663 28.000000,1.000000 
z"/>
<path fill="#D8D8D8" opacity="1.000000" stroke="none" 
	d="
M27.535349,1.000000 
	C28.013802,1.737663 28.027603,2.475327 28.085346,3.978102 
	C29.527321,8.578953 29.619209,11.979216 25.606646,14.534739 
	C24.462780,15.263245 23.849892,16.825470 22.650877,17.960855 
	C21.202318,17.613819 20.096399,17.311310 18.990480,17.008799 
	C18.990480,17.008799 19.000000,17.000076 19.000710,16.620476 
	C19.247177,15.125643 19.257027,13.881939 19.781654,12.918574 
	C21.561396,9.650483 20.345903,8.264273 16.992468,8.000760 
	C16.053520,5.899204 15.114574,3.797648 14.087814,1.348046 
	C18.356899,1.000000 22.713799,1.000000 27.535349,1.000000 
z"/>
<path fill="#D4D4D4" opacity="1.000000" stroke="none" 
	d="
M1.000000,80.000000 
	C1.000000,79.250000 1.000000,78.500000 1.401875,77.377899 
	C3.324072,77.005798 4.844394,77.005798 5.755855,77.005798 
	C6.695605,74.086884 7.350675,72.052193 8.453310,69.996544 
	C11.583954,70.019775 14.267032,70.063972 17.036240,70.425514 
	C18.422483,71.494614 19.722597,72.246376 21.073700,73.378738 
	C24.009531,79.051872 19.009735,78.880524 16.255295,80.497040 
	C15.696157,80.467072 15.380879,80.374222 14.798550,79.958267 
	C11.326346,79.873688 8.121196,80.112213 4.510415,80.391251 
	C3.069856,80.287842 2.034928,80.143921 1.000000,80.000000 
z"/>
<path fill="#141414" opacity="1.000000" stroke="none" 
	d="
M53.000000,101.000000 
	C47.311958,101.000000 41.623920,101.000000 35.475792,100.653061 
	C35.681934,99.203423 36.348160,98.100731 37.391922,96.995193 
	C39.513878,95.335480 41.258305,93.678619 43.456268,92.017258 
	C46.931797,92.035751 49.953789,92.058731 52.992973,92.442902 
	C53.561653,95.115082 54.113140,97.426079 54.745415,100.075577 
	C54.942764,99.971054 53.971382,100.485527 53.000000,101.000000 
M50.888905,95.228271 
	C50.589485,95.359856 50.290066,95.491440 49.990646,95.623024 
	C50.357441,95.596947 50.724232,95.570862 50.888905,95.228271 
z"/>
<path fill="#838383" opacity="1.000000" stroke="none" 
	d="
M101.000000,12.000000 
	C101.000000,13.714375 101.000000,15.428750 100.615555,17.559017 
	C99.598259,17.806168 98.852020,17.798182 98.349953,17.444044 
	C92.778473,13.514125 90.835808,13.849030 86.567513,19.459538 
	C86.098373,20.076204 85.376312,20.677280 84.653587,20.896250 
	C78.875404,22.646917 77.285538,26.460957 78.615173,31.982380 
	C74.274490,30.067177 73.560005,25.614862 77.439514,22.284954 
	C82.283669,18.127069 87.784126,14.733830 93.329575,11.013868 
	C94.095657,11.024123 94.533401,11.030973 95.040192,11.343605 
	C96.073654,11.774851 97.038086,11.900315 98.377197,12.023664 
	C99.501259,12.014366 100.250633,12.007182 101.000000,12.000000 
z"/>
<path fill="#7B7B7B" opacity="1.000000" stroke="none" 
	d="
M79.006332,31.992958 
	C77.285538,26.460957 78.875404,22.646917 84.653587,20.896250 
	C85.376312,20.677280 86.098373,20.076204 86.567513,19.459538 
	C90.835808,13.849030 92.778473,13.514125 98.349953,17.444044 
	C98.852020,17.798182 99.598259,17.806168 100.615555,17.987453 
	C101.000000,18.750000 101.000000,19.500000 101.000000,20.625000 
	C91.800858,18.633928 83.234337,23.233728 81.638931,31.594440 
	C80.511047,31.994041 79.758690,31.993500 79.006332,31.992958 
z"/>
<path fill="#E0E0E0" opacity="1.000000" stroke="none" 
	d="
M44.006481,9.999838 
	C45.438019,9.323403 46.869553,8.646970 49.057289,7.955341 
	C52.536720,7.973388 55.259949,8.006630 58.034065,8.347952 
	C58.706337,9.340038 59.327724,10.024043 59.949112,10.708048 
	C60.198441,10.521716 60.447769,10.335383 60.697102,10.149052 
	C60.445259,9.412446 60.193417,8.675840 59.954857,7.540779 
	C60.312092,5.094883 60.656048,3.047441 61.000000,1.000000 
	C63.041668,1.000000 65.083336,1.000000 67.473488,1.324167 
	C64.697395,3.170813 63.916203,5.873769 64.060280,9.399023 
	C64.074631,10.425530 64.118279,11.110603 64.102356,12.064838 
	C64.020363,12.516413 63.997944,12.698824 63.655182,12.923105 
	C62.906300,13.008652 62.477768,13.052327 61.744888,12.941382 
	C60.347282,12.590522 59.254021,12.394281 57.750305,12.142239 
	C56.513985,12.110631 55.688118,12.134826 54.435608,12.132469 
	C51.005466,11.754082 48.001972,11.402247 44.881104,10.833696 
	C44.565475,10.344815 44.313057,10.139101 44.006481,9.999838 
z"/>
<path fill="#0D0D0D" opacity="1.000000" stroke="none" 
	d="
M85.013733,95.977432 
	C85.925308,95.510513 86.836884,95.043587 88.969093,93.951431 
	C86.601158,93.599220 85.623009,93.453735 84.658966,93.310341 
	C83.336327,90.490906 88.208611,88.402779 93.254913,89.588158 
	C93.892265,89.737877 94.541183,89.838394 95.498978,90.328720 
	C93.845695,91.458191 91.878166,92.220650 88.801956,93.412743 
	C92.769310,95.511650 95.933838,97.103554 98.992004,98.878693 
	C99.550339,99.202774 99.675102,100.273781 100.000000,101.000000 
	C96.969406,101.000000 93.938812,101.000000 90.497833,100.659302 
	C90.009407,99.316154 89.931374,98.313713 89.853333,97.311272 
	C89.235558,98.540848 88.617783,99.770424 88.000000,101.000000 
	C86.285645,101.000000 84.571281,101.000000 82.440948,100.642982 
	C83.021233,98.849792 84.017487,97.413612 85.013733,95.977432 
z"/>
<path fill="#B3B3B3" opacity="1.000000" stroke="none" 
	d="
M101.000000,2.000000 
	C101.000000,2.750000 101.000000,3.500000 100.657898,4.662015 
	C99.218285,5.382002 98.120781,5.689976 96.951012,5.667197 
	C95.922310,4.904290 94.965881,4.472136 93.809906,3.811427 
	C92.070526,4.355400 90.530685,5.127926 88.669876,5.963163 
	C87.232521,6.684647 86.116112,7.343420 84.785141,7.768598 
	C83.422386,7.191878 81.480446,7.119796 81.255615,6.461379 
	C79.859436,2.372610 77.354973,4.230254 75.003090,4.600407 
	C75.003700,3.133575 75.001854,2.066787 75.000000,1.000000 
	C83.020897,1.000000 91.041801,1.000000 99.651810,1.209615 
	C100.435425,1.689308 100.688454,1.882898 101.000000,2.000000 
z"/>
<path fill="#454545" opacity="1.000000" stroke="none" 
	d="
M15.065601,80.281372 
	C15.380879,80.374222 15.696157,80.467072 16.459919,80.820175 
	C22.642925,81.470757 28.377443,81.861084 34.094109,82.596191 
	C32.292408,84.261719 30.508560,85.582474 28.472372,87.040886 
	C27.510038,87.412979 26.800045,87.647408 25.876408,87.714813 
	C24.140753,86.619110 22.618744,85.690445 20.816257,84.526978 
	C16.356789,84.195755 12.177795,84.099327 7.562043,83.988724 
	C5.083522,83.983032 3.041761,83.991516 1.000000,84.000000 
	C1.000000,82.933327 1.000000,81.866661 1.000000,80.399994 
	C2.034928,80.143921 3.069856,80.287842 4.758691,80.636139 
	C8.630265,80.654144 11.847934,80.467758 15.065601,80.281372 
z"/>
<path fill="#929292" opacity="1.000000" stroke="none" 
	d="
M94.009445,4.039981 
	C94.965881,4.472136 95.922310,4.904290 96.652222,5.823729 
	C96.624054,7.192466 96.638321,8.714863 97.055420,8.834658 
	C98.284706,9.187721 99.673584,8.985125 101.000000,9.000000 
	C101.000000,9.750000 101.000000,10.500000 101.000000,11.625000 
	C100.250633,12.007182 99.501259,12.014366 98.151062,11.778740 
	C96.690544,11.369895 95.830849,11.203860 94.971153,11.037825 
	C94.533401,11.030973 94.095657,11.024123 93.034973,10.752016 
	C86.320656,9.508539 81.228737,10.972800 80.174850,14.634016 
	C79.181984,18.083221 76.938095,18.806150 74.151825,18.694426 
	C75.037880,17.521986 76.396339,16.635475 76.382378,15.771150 
	C76.293053,10.245498 80.691704,9.946353 84.258842,8.615219 
	C84.542549,8.509350 84.754440,8.211061 84.999710,8.002193 
	C86.116112,7.343420 87.232521,6.684647 88.952934,6.108438 
	C91.041115,5.473996 92.525276,4.756988 94.009445,4.039981 
z"/>
<path fill="#D8D8D8" opacity="1.000000" stroke="none" 
	d="
M11.517044,1.000000 
	C12.302630,2.748003 12.605262,4.496006 12.628585,6.583507 
	C11.557427,6.734956 10.765579,6.546906 9.841240,6.327394 
	C9.590333,7.757627 9.358686,9.078073 9.117413,10.453392 
	C6.198069,10.290335 3.599035,10.145167 1.000000,10.000000 
	C1.000000,7.071679 1.000000,4.143359 1.000000,1.000000 
	C4.342973,1.000000 7.688530,1.000000 11.517044,1.000000 
z"/>
<path fill="#E0E0E0" opacity="1.000000" stroke="none" 
	d="
M1.000000,10.416666 
	C3.599035,10.145167 6.198069,10.290335 9.117413,10.453392 
	C9.358686,9.078073 9.590333,7.757627 9.841240,6.327394 
	C10.765579,6.546906 11.557427,6.734956 12.675354,6.961981 
	C11.394196,10.392177 14.620689,14.849081 10.327551,17.876778 
	C7.260224,17.032450 4.504272,16.028135 1.374160,15.011910 
	C1.000000,13.611111 1.000000,12.222222 1.000000,10.416666 
z"/>
<path fill="#141414" opacity="1.000000" stroke="none" 
	d="
M100.500000,101.000000 
	C99.675102,100.273781 99.550339,99.202774 98.992004,98.878693 
	C95.933838,97.103554 92.769310,95.511650 88.801956,93.412743 
	C91.878166,92.220650 93.845695,91.458191 95.908524,90.341339 
	C96.334030,88.553368 96.664246,87.119797 97.387009,85.354446 
	C98.853050,85.015121 99.926521,85.007561 101.000000,85.000000 
	C101.000000,90.333336 101.000000,95.666664 100.500000,101.000000 
M95.326408,93.971184 
	C95.718605,94.897408 96.110794,95.823631 96.502991,96.749855 
	C97.001953,96.449371 97.500916,96.148888 97.999878,95.848404 
	C97.259071,95.073524 96.518265,94.298645 95.326408,93.971184 
z"/>
<path fill="#9F9F9F" opacity="1.000000" stroke="none" 
	d="
M16.950109,70.108170 
	C14.267032,70.063972 11.583954,70.019775 8.015995,69.965843 
	C5.087409,69.970741 3.043705,69.985367 1.000000,70.000000 
	C1.000000,69.555557 1.000000,69.111107 1.387933,68.314743 
	C4.857173,67.304268 7.938481,66.645721 11.358276,66.159424 
	C15.125969,66.892326 18.555172,67.452980 21.984375,68.013641 
	C23.954298,68.320343 25.924221,68.627045 27.714069,69.493675 
	C24.006033,70.071800 20.478071,70.089989 16.950109,70.108170 
z"/>
<path fill="#B7B7B7" opacity="1.000000" stroke="none" 
	d="
M57.983181,8.039871 
	C55.259949,8.006630 52.536720,7.973388 49.427883,7.936273 
	C49.350845,5.882810 49.659412,3.833222 49.983990,1.391817 
	C53.361286,1.000000 56.722576,1.000000 60.541931,1.000000 
	C60.656048,3.047441 60.312092,5.094883 59.629227,7.559084 
	C58.854599,7.997186 58.418892,8.018528 57.983181,8.039871 
z"/>
<path fill="#0D0D0D" opacity="1.000000" stroke="none" 
	d="
M101.000000,84.583336 
	C99.926521,85.007561 98.853050,85.015121 97.376343,85.037750 
	C93.586739,84.005356 88.373344,87.662292 87.096611,80.860382 
	C87.108253,80.508125 87.150154,80.204193 87.518433,80.138626 
	C92.257805,80.048698 96.628906,80.024353 101.000000,80.000000 
	C101.000000,81.388893 101.000000,82.777779 101.000000,84.583336 
z"/>
<path fill="#8C8C8C" opacity="1.000000" stroke="none" 
	d="
M11.019789,65.987175 
	C7.938481,66.645721 4.857173,67.304268 1.387933,67.981407 
	C1.000000,66.285645 1.000000,64.571281 1.000000,62.428463 
	C6.332808,62.028278 11.665616,62.056557 17.459038,62.476910 
	C15.619696,63.908379 13.319742,64.947777 11.019789,65.987175 
z"/>
<path fill="#C1C1C1" opacity="1.000000" stroke="none" 
	d="
M101.000000,56.571541 
	C96.617950,56.328602 92.235893,55.657204 87.358215,54.702160 
	C86.888168,54.224358 86.913757,54.030201 86.939339,53.836048 
	C88.706688,53.018192 90.474037,52.200336 92.914276,51.172920 
	C94.385666,50.966152 95.184174,50.968937 96.400742,50.979561 
	C98.212532,50.991604 99.606270,50.995804 101.000000,51.000000 
	C101.000000,52.714359 101.000000,54.428715 101.000000,56.571541 
z"/>
<path fill="#8C8C8C" opacity="1.000000" stroke="none" 
	d="
M101.000000,79.555840 
	C96.628906,80.024353 92.257805,80.048698 87.441391,80.005974 
	C88.415390,78.907516 89.834717,77.876144 91.719376,76.968872 
	C92.105103,76.767670 92.025490,76.442368 91.945885,76.117065 
	C91.947372,75.926163 91.948853,75.735260 92.364166,75.276588 
	C95.603195,75.413162 98.075897,75.123772 99.024513,71.834885 
	C99.463219,71.875000 99.901917,71.915108 100.670311,71.977615 
	C101.000000,74.370560 101.000000,76.741112 101.000000,79.555840 
z"/>
<path fill="#141414" opacity="1.000000" stroke="none" 
	d="
M59.963333,90.052315 
	C61.225994,90.965477 62.531231,91.826508 63.735798,92.810745 
	C64.493729,93.430054 65.100784,94.234001 65.775520,94.955109 
	C65.481102,95.285080 65.186676,95.615051 64.892250,95.945023 
	C64.156830,95.475555 63.421413,95.006081 62.685993,94.536613 
	C62.398903,94.873993 62.111809,95.211372 61.824718,95.548752 
	C63.537125,97.111885 65.249535,98.675026 66.980972,100.619080 
	C64.958336,101.000000 62.916668,101.000000 60.300819,100.690948 
	C58.722054,98.477127 57.717468,96.572365 56.712879,94.667603 
	C55.953011,94.401222 55.193142,94.134850 54.433273,93.868469 
	C56.276623,92.596413 58.119976,91.324356 59.963333,90.052315 
z"/>
<path fill="#1A1A1A" opacity="1.000000" stroke="none" 
	d="
M59.980518,90.026810 
	C58.119976,91.324356 56.276623,92.596413 54.433273,93.868469 
	C55.193142,94.134850 55.953011,94.401222 56.712879,94.667603 
	C57.717468,96.572365 58.722054,98.477127 59.863319,100.690948 
	C57.958332,101.000000 55.916668,101.000000 53.437500,101.000000 
	C53.971382,100.485527 54.942764,99.971054 54.745415,100.075577 
	C54.113140,97.426079 53.561653,95.115082 53.300125,92.416840 
	C54.034863,91.899170 54.479630,91.768738 54.924400,91.638306 
	C54.528759,91.146790 54.230484,90.432907 53.717899,90.208473 
	C52.524925,89.686142 51.228710,89.399590 49.983116,88.677475 
	C49.998028,87.883972 50.004154,87.430489 50.357124,87.141891 
	C53.813419,88.188011 56.922878,89.069244 60.032337,89.950470 
	C60.032337,89.950470 59.997711,90.001305 59.980518,90.026810 
z"/>
<path fill="#C7C7C7" opacity="1.000000" stroke="none" 
	d="
M101.000000,50.555836 
	C99.606270,50.995804 98.212532,50.991604 96.405800,50.610184 
	C95.842590,48.851349 95.842697,46.304577 95.519646,46.262901 
	C90.679787,45.638569 93.722137,42.937481 94.271797,41.139763 
	C96.697479,41.851582 98.848740,42.425793 101.000000,43.000000 
	C101.000000,45.370556 101.000000,47.741116 101.000000,50.555836 
z"/>
<path fill="#080808" opacity="1.000000" stroke="none" 
	d="
M1.000000,84.416664 
	C3.041761,83.991516 5.083522,83.983032 7.630826,84.308609 
	C9.426998,85.273399 10.717627,85.904144 13.569809,87.298042 
	C10.964695,88.559334 9.484593,89.275940 7.606257,89.983627 
	C5.138682,89.649811 3.069341,89.324905 1.000000,89.000000 
	C1.000000,87.611107 1.000000,86.222221 1.000000,84.416664 
z"/>
<path fill="#0D0D0D" opacity="1.000000" stroke="none" 
	d="
M29.000000,101.000000 
	C25.637899,101.000000 22.275797,101.000000 18.341232,100.744019 
	C17.515430,99.987259 17.262093,99.486488 17.233891,98.966927 
	C17.689800,98.797096 17.920574,98.646065 18.151348,98.495033 
	C17.770866,98.335350 17.390385,98.175659 16.920036,97.666641 
	C15.540348,96.868210 14.250531,96.419098 12.987541,95.620682 
	C14.255030,91.209412 17.176474,95.234055 19.041584,94.316833 
	C19.389982,95.080582 19.706940,95.552673 20.115761,96.380981 
	C21.769472,97.314468 23.385307,97.779999 24.877712,98.501015 
	C26.318054,99.196884 27.631060,100.156334 29.000000,101.000000 
z"/>
<path fill="#080808" opacity="1.000000" stroke="none" 
	d="
M84.759911,95.743195 
	C84.017487,97.413612 83.021233,98.849792 82.012489,100.642982 
	C81.555557,101.000000 81.111107,101.000000 80.333328,101.000000 
	C79.523720,99.756050 81.432053,96.829811 77.520866,97.933105 
	C76.494942,98.222519 74.860031,96.353058 73.365387,95.384720 
	C77.345680,90.454445 80.874481,95.639084 84.759911,95.743195 
z"/>
<path fill="#1A1A1A" opacity="1.000000" stroke="none" 
	d="
M29.375000,101.000000 
	C27.631060,100.156334 26.318054,99.196884 24.877712,98.501015 
	C23.385307,97.779999 21.769472,97.314468 20.492802,96.371178 
	C22.795246,96.167618 24.872576,96.694435 26.810400,96.374985 
	C28.307350,96.128220 29.629417,94.820587 31.369783,93.991585 
	C32.164238,94.029648 32.618149,94.060738 33.057701,94.487350 
	C32.695564,96.921913 32.347782,98.960960 32.000000,101.000000 
	C31.250000,101.000000 30.500000,101.000000 29.375000,101.000000 
z"/>
<path fill="#242424" opacity="1.000000" stroke="none" 
	d="
M1.000000,89.416664 
	C3.069341,89.324905 5.138682,89.649811 7.643349,90.297440 
	C7.140464,91.954002 6.202254,93.287827 5.201285,94.710876 
	C5.713057,94.942215 6.891475,95.474892 7.925751,96.262497 
	C6.542550,96.683388 5.303491,96.849350 3.779092,96.966904 
	C2.662502,95.945648 1.831252,94.972824 1.000001,94.000000 
	C1.000000,92.611107 1.000000,91.222221 1.000000,89.416664 
z"/>
<path fill="#C7C7C7" opacity="1.000000" stroke="none" 
	d="
M1.000000,70.437500 
	C3.043705,69.985367 5.087409,69.970741 7.568429,69.986809 
	C7.350675,72.052193 6.695605,74.086884 5.755855,77.005798 
	C4.844394,77.005798 3.324072,77.005798 1.401875,77.002899 
	C1.000000,74.958336 1.000000,72.916664 1.000000,70.437500 
z"/>
<path fill="#C7C7C7" opacity="1.000000" stroke="none" 
	d="
M74.562500,1.000000 
	C75.001854,2.066787 75.003700,3.133575 74.683998,4.619822 
	C73.938049,5.066097 73.513657,5.092912 72.765305,5.115377 
	C70.776268,4.957421 69.111206,4.803816 67.706017,4.674184 
	C66.429771,6.221093 65.259682,7.639341 64.089584,9.057589 
	C63.916203,5.873769 64.697395,3.170813 67.910988,1.324167 
	C70.041664,1.000000 72.083336,1.000000 74.562500,1.000000 
z"/>
<path fill="#C1C1C1" opacity="1.000000" stroke="none" 
	d="
M101.000000,42.571537 
	C98.848740,42.425793 96.697479,41.851582 94.269638,40.742859 
	C93.986275,39.152500 93.979492,38.096657 94.273788,36.983234 
	C96.716583,36.950439 98.858292,36.975220 101.000000,37.000000 
	C101.000000,38.714359 101.000000,40.428715 101.000000,42.571537 
z"/>
<path fill="#7B7B7B" opacity="1.000000" stroke="none" 
	d="
M25.001951,58.998795 
	C19.796364,59.334141 14.593369,59.721203 9.384058,59.982254 
	C6.907966,60.106342 4.419838,59.990250 1.468581,59.991478 
	C1.000000,59.555553 1.000000,59.111111 1.445439,58.331253 
	C4.273308,57.949574 6.655737,57.903301 9.453362,57.873901 
	C11.253495,57.895641 12.638433,57.900509 14.307178,58.194389 
	C17.401440,58.637459 20.211893,58.791523 23.352221,58.956131 
	C24.122047,58.977386 24.561998,58.988091 25.001951,58.998795 
z"/>
<path fill="#595959" opacity="1.000000" stroke="none" 
	d="
M14.023371,57.905380 
	C12.638433,57.900509 11.253495,57.895641 9.322343,57.523598 
	C6.184085,56.770950 3.592043,56.385475 1.000000,56.000000 
	C1.000000,56.000000 1.000000,55.500000 1.000000,55.250000 
	C5.018145,54.968384 9.036290,54.936764 13.927504,54.936905 
	C16.192417,55.045311 17.584261,55.121956 18.886414,55.526520 
	C17.205606,56.538082 15.614489,57.221729 14.023371,57.905380 
z"/>
<path fill="#080808" opacity="1.000000" stroke="none" 
	d="
M12.960712,95.969986 
	C14.250531,96.419098 15.540348,96.868210 16.918755,97.908981 
	C17.007343,98.500648 17.008755,98.985718 17.008755,98.985718 
	C17.262093,99.486488 17.515430,99.987259 17.884384,100.744019 
	C15.958333,101.000000 13.916667,101.000000 11.438381,100.581757 
	C11.001274,98.769348 11.000787,97.375183 11.327312,95.980911 
	C12.089788,95.977203 12.525249,95.973595 12.960712,95.969986 
z"/>
<path fill="#0D0D0D" opacity="1.000000" stroke="none" 
	d="
M11.000299,95.981010 
	C11.000787,97.375183 11.001274,98.769348 11.000881,100.581757 
	C9.611111,101.000000 8.222222,101.000000 6.286132,100.738777 
	C5.152846,99.984955 4.566762,99.492355 3.988899,98.668716 
	C4.019557,97.896889 4.041995,97.456108 4.064432,97.015320 
	C5.303491,96.849350 6.542550,96.683388 8.180742,96.143265 
	C9.386683,95.839737 10.193491,95.910378 11.000299,95.981010 
z"/>
<path fill="#0D0D0D" opacity="1.000000" stroke="none" 
	d="
M32.375000,101.000000 
	C32.347782,98.960960 32.695564,96.921913 33.395531,94.418556 
	C34.928787,93.707726 36.109859,93.461205 37.639477,93.141945 
	C37.369331,94.808434 37.191856,95.903236 37.014389,96.998039 
	C36.348160,98.100731 35.681934,99.203423 35.007854,100.653061 
	C34.250000,101.000000 33.500000,101.000000 32.375000,101.000000 
z"/>
<path fill="#B3B3B3" opacity="1.000000" stroke="none" 
	d="
M101.000000,36.600006 
	C98.858292,36.975220 96.716583,36.950439 94.274536,36.973053 
	C93.974205,37.020447 93.960281,37.026531 93.973747,36.660622 
	C93.977379,35.567177 93.967537,34.839642 94.297852,34.063011 
	C95.417000,33.631065 96.195984,33.248222 96.974976,32.865379 
	C98.049644,32.948792 99.124313,33.032200 100.599487,33.057808 
	C101.000000,34.066669 101.000000,35.133339 101.000000,36.600006 
z"/>
<path fill="#A8A8A8" opacity="1.000000" stroke="none" 
	d="
M101.000000,8.600004 
	C99.673584,8.985125 98.284706,9.187721 97.055420,8.834658 
	C96.638321,8.714863 96.624054,7.192466 96.724487,6.154480 
	C98.120781,5.689976 99.218285,5.382002 100.657898,5.037015 
	C101.000000,6.066669 101.000000,7.133339 101.000000,8.600004 
z"/>
<path fill="#636363" opacity="1.000000" stroke="none" 
	d="
M1.000000,56.333332 
	C3.592043,56.385475 6.184085,56.770950 8.907146,57.506729 
	C6.655737,57.903301 4.273308,57.949574 1.445439,57.997925 
	C1.000000,57.555553 1.000000,57.111111 1.000000,56.333332 
z"/>
<path fill="#2D2D2D" opacity="1.000000" stroke="none" 
	d="
M3.779093,96.966904 
	C4.041995,97.456108 4.019557,97.896889 3.762518,98.853546 
	C3.351944,99.912949 3.175972,100.456474 3.000000,101.000000 
	C2.333333,100.568054 1.182279,100.218750 1.091801,99.688492 
	C0.831578,98.163445 1.000000,96.565254 1.000001,94.497902 
	C1.831252,94.972824 2.662502,95.945648 3.779093,96.966904 
z"/>
<path fill="#141414" opacity="1.000000" stroke="none" 
	d="
M88.333328,101.000000 
	C88.617783,99.770424 89.235558,98.540848 89.853333,97.311272 
	C89.931374,98.313713 90.009407,99.316154 90.043716,100.659302 
	C89.555557,101.000000 89.111107,101.000000 88.333328,101.000000 
z"/>
<path fill="#141414" opacity="1.000000" stroke="none" 
	d="
M101.000000,61.625000 
	C100.196114,62.226307 99.392227,62.452614 98.276718,62.744026 
	C98.729675,61.547050 99.494255,60.284973 100.629410,59.011448 
	C101.000000,59.750000 101.000000,60.500000 101.000000,61.625000 
z"/>
<path fill="#1A1A1A" opacity="1.000000" stroke="none" 
	d="
M3.375000,101.000000 
	C3.175972,100.456474 3.351944,99.912949 3.754298,99.184586 
	C4.566762,99.492355 5.152846,99.984955 5.869465,100.738777 
	C5.250000,101.000000 4.500000,101.000000 3.375000,101.000000 
z"/>
<path fill="#A8A8A8" opacity="1.000000" stroke="none" 
	d="
M101.000000,1.500000 
	C100.688454,1.882898 100.435425,1.689308 100.120461,1.209615 
	C100.333336,1.000000 100.666664,1.000000 101.000000,1.500000 
z"/>
<path fill="#CDCDCD" opacity="1.000000" stroke="none" 
	d="
M93.973450,37.030628 
	C93.979492,38.096657 93.986275,39.152500 93.995224,40.605247 
	C93.722137,42.937481 90.679787,45.638569 95.519646,46.262901 
	C95.842697,46.304577 95.842590,48.851349 95.987732,50.602341 
	C95.184174,50.968937 94.385666,50.966152 93.187866,50.948448 
	C91.226707,48.920250 89.664841,46.906975 88.028976,44.177811 
	C87.850822,42.230442 87.746674,40.998959 87.705093,40.507248 
	C84.460709,41.042171 81.588730,41.464493 78.738731,42.003128 
	C76.750633,42.378868 74.792648,42.913967 72.821213,43.377884 
	C70.169327,43.330158 67.517433,43.282433 64.462540,42.733833 
	C65.240211,41.490307 66.473648,40.818207 67.587173,39.985714 
	C68.767380,39.103367 69.833633,38.068596 71.356094,37.061005 
	C72.846176,36.980335 73.929825,36.939060 75.435684,36.939262 
	C77.820328,36.880020 79.782745,36.779305 82.166275,36.772079 
	C85.386459,36.905499 88.185524,36.945427 91.357018,36.991653 
	C92.473053,37.007477 93.216667,37.017002 93.960281,37.026527 
	C93.960281,37.026531 93.974205,37.020447 93.973450,37.030628 
z"/>
<path fill="#D8D8D8" opacity="1.000000" stroke="none" 
	d="
M70.949661,37.100399 
	C69.833633,38.068596 68.767380,39.103367 67.587173,39.985714 
	C66.473648,40.818207 65.240211,41.490307 64.030449,42.624474 
	C59.303722,43.021095 54.606079,43.026203 49.437439,42.597069 
	C48.299114,41.433052 47.631790,40.703278 46.976505,39.608498 
	C47.014275,38.513817 47.040009,37.784149 47.388023,37.051949 
	C48.139717,37.033649 48.569126,37.017887 49.405777,37.011288 
	C52.230087,37.270844 54.647156,37.521240 57.498268,37.811504 
	C61.291290,37.554657 64.650269,37.257938 68.398346,36.976402 
	C69.563019,36.908684 70.338608,36.825779 71.076614,36.833893 
	C71.039032,36.924911 70.949661,37.100399 70.949661,37.100399 
z"/>
<path fill="#D8D8D8" opacity="1.000000" stroke="none" 
	d="
M18.976105,55.198601 
	C17.584261,55.121956 16.192417,55.045311 14.387821,54.897850 
	C14.613540,50.985584 17.554855,50.261471 20.521851,50.801113 
	C25.017529,51.618797 29.331039,52.802517 32.900757,48.142460 
	C33.628330,49.219551 33.976490,50.317829 34.632660,51.911938 
	C34.960018,52.925484 34.979366,53.443203 34.998714,53.960922 
	C33.350697,55.374863 31.702682,56.788807 29.914963,58.504177 
	C29.775259,58.805607 29.391859,58.801765 29.120386,58.521523 
	C28.255678,53.384743 24.446100,55.939022 21.655067,55.191753 
	C20.511944,55.133911 19.744024,55.166256 18.976105,55.198601 
z"/>
<path fill="#E0E0E0" opacity="1.000000" stroke="none" 
	d="
M46.964466,39.973507 
	C47.631790,40.703278 48.299114,41.433052 48.979939,42.499252 
	C44.598888,43.226303 39.780422,41.958572 36.017792,46.186447 
	C34.138973,43.100677 32.579613,39.899410 31.137737,36.130959 
	C31.463619,35.312454 31.716558,35.119526 32.359131,35.142288 
	C34.258327,35.746185 35.830650,36.138302 37.362766,36.650673 
	C40.574543,37.724758 43.765160,38.862125 46.964466,39.973507 
z"/>
<path fill="#141414" opacity="1.000000" stroke="none" 
	d="
M72.991997,56.031307 
	C68.971596,57.063782 65.237656,57.041615 62.642921,53.916870 
	C61.317947,54.485767 59.828117,55.125450 58.338287,55.765129 
	C57.914654,54.633751 56.842567,53.127640 57.226639,52.463024 
	C57.741226,51.572571 59.368546,50.931484 60.543533,50.889145 
	C64.271629,50.754799 68.011551,50.948231 71.842415,51.727821 
	C72.289291,53.637562 72.640640,54.834435 72.991997,56.031307 
z"/>
<path fill="#C1C1C1" opacity="1.000000" stroke="none" 
	d="
M73.410660,56.089188 
	C72.640640,54.834435 72.289291,53.637562 71.937012,52.055077 
	C75.734161,51.739758 79.532234,51.810051 83.744797,52.281483 
	C84.210655,53.794529 84.262039,54.906441 84.313416,56.018356 
	C80.818726,56.061260 77.324028,56.104164 73.410660,56.089188 
z"/>
<path fill="#2D2D2D" opacity="1.000000" stroke="none" 
	d="
M57.352066,64.122482 
	C51.548145,63.529423 46.133011,62.891792 40.547562,61.846909 
	C40.926788,61.254143 41.476326,61.068623 42.025867,60.883106 
	C47.718075,61.252346 53.410278,61.621586 59.562462,62.296822 
	C60.039669,63.020878 60.056904,63.438942 60.074135,63.857002 
	C59.296375,63.930634 58.518616,64.004265 57.352066,64.122482 
z"/>
<path fill="#D8D8D8" opacity="1.000000" stroke="none" 
	d="
M73.154083,43.645885 
	C74.792648,42.913967 76.750633,42.378868 78.738731,42.003128 
	C81.588730,41.464493 84.460709,41.042171 87.705093,40.507248 
	C87.746674,40.998959 87.850822,42.230442 87.935295,43.860199 
	C83.106064,44.143616 78.296516,44.028751 73.154083,43.645885 
z"/>
<path fill="#141414" opacity="1.000000" stroke="none" 
	d="
M46.154457,51.993195 
	C48.842533,51.677979 51.530609,51.362759 54.604836,51.002262 
	C53.156918,55.939114 50.465828,56.983601 46.252937,54.788822 
	C46.046028,53.432480 46.100243,52.712837 46.154457,51.993195 
z"/>
<path fill="#D4D4D4" opacity="1.000000" stroke="none" 
	d="
M35.412247,53.995720 
	C34.979366,53.443203 34.960018,52.925484 34.904659,52.020805 
	C37.017487,51.171143 39.166328,50.708439 41.712555,50.533569 
	C42.743511,52.161404 43.377079,53.501404 44.010643,54.841404 
	C41.282352,54.571106 38.554066,54.300812 35.412247,53.995720 
z"/>
<path fill="#141414" opacity="1.000000" stroke="none" 
	d="
M41.945358,60.582222 
	C41.476326,61.068623 40.926788,61.254143 40.181679,61.654480 
	C38.239182,61.536488 36.492252,61.203678 34.362991,60.785843 
	C34.623848,59.275490 35.267036,57.850170 35.851795,56.554333 
	C37.911480,57.830963 39.888161,59.056152 41.945358,60.582222 
z"/>
<path fill="#E0E0E0" opacity="1.000000" stroke="none" 
	d="
M44.331879,54.912521 
	C43.377079,53.501404 42.743511,52.161404 42.061081,50.502609 
	C43.329983,50.537258 44.647747,50.890697 46.059982,51.618668 
	C46.100243,52.712837 46.046028,53.432480 45.973480,54.513344 
	C45.521133,54.910927 45.087124,54.947285 44.331879,54.912521 
z"/>
<path fill="#141414" opacity="1.000000" stroke="none" 
	d="
M60.422512,63.866684 
	C60.056904,63.438942 60.039669,63.020878 60.016178,62.287834 
	C61.576797,59.587132 62.886845,59.667999 63.963669,62.706429 
	C62.926590,63.313843 61.848740,63.595104 60.422512,63.866684 
z"/>
<path fill="#141414" opacity="1.000000" stroke="none" 
	d="
M84.608383,55.983650 
	C84.262039,54.906441 84.210655,53.794529 84.106148,52.268368 
	C84.940109,52.336838 85.827202,52.819561 86.826813,53.569168 
	C86.913757,54.030201 86.888168,54.224358 86.961441,54.695137 
	C86.341324,55.297485 85.622345,55.623215 84.608383,55.983650 
z"/>
<path fill="#141414" opacity="1.000000" stroke="none" 
	d="
M70.071411,63.298435 
	C69.243454,63.584538 68.359047,63.556282 67.233093,63.290710 
	C67.561684,62.455658 68.131836,61.857929 68.701981,61.260197 
	C69.139648,61.834824 69.577316,62.409451 70.071411,63.298435 
z"/>
<path fill="#141414" opacity="1.000000" stroke="none" 
	d="
M76.017685,63.554272 
	C75.560127,63.882439 75.097069,63.889908 74.295486,63.810162 
	C74.229675,62.757526 74.502396,61.792107 74.775116,60.826687 
	C75.029198,60.832760 75.283279,60.838837 75.537361,60.844913 
	C75.695633,61.641132 75.853905,62.437355 76.017685,63.554272 
z"/>
<path fill="#141414" opacity="1.000000" stroke="none" 
	d="
M90.791275,62.776222 
	C90.221741,63.329224 89.440628,63.651241 88.325180,63.949997 
	C88.853798,63.466240 89.716759,63.005741 90.791275,62.776222 
z"/>
<path fill="#141414" opacity="1.000000" stroke="none" 
	d="
M86.454041,61.248909 
	C85.931656,61.021145 85.585846,60.617329 85.319679,60.166496 
	C85.291397,60.118591 85.729553,59.795300 85.951324,59.599762 
	C86.185417,60.086273 86.419510,60.572784 86.454041,61.248909 
z"/>
<path fill="#141414" opacity="1.000000" stroke="none" 
	d="
M82.477341,59.790928 
	C82.424034,60.460968 82.179428,60.936146 81.934822,61.411324 
	C81.719971,61.209557 81.293259,60.874561 81.323296,60.826794 
	C81.599113,60.388195 81.954102,59.999382 82.477341,59.790928 
z"/>
<path fill="#2D2D2D" opacity="1.000000" stroke="none" 
	d="
M94.972672,62.732254 
	C94.968590,63.025600 94.488617,63.035042 94.249054,63.021538 
	C94.046806,62.378105 94.084122,61.748173 94.121437,61.118240 
	C94.286873,61.086903 94.452309,61.055569 94.617744,61.024231 
	C94.737411,61.495789 94.857086,61.967350 94.972672,62.732254 
z"/>
<path fill="#141414" opacity="1.000000" stroke="none" 
	d="
M55.146255,55.652706 
	C55.033417,55.353912 55.116756,55.031044 55.200096,54.708172 
	C55.247540,55.014992 55.294983,55.321808 55.146255,55.652706 
z"/>
<path fill="#D4D4D4" opacity="1.000000" stroke="none" 
	d="
M32.014042,34.984982 
	C31.716558,35.119526 31.463619,35.312454 31.128918,35.767494 
	C26.595394,35.008327 22.188181,34.045441 17.407948,33.013748 
	C17.026518,32.513500 17.018108,32.082062 16.956125,30.962341 
	C15.983980,27.994553 16.707857,26.339901 19.179819,27.083855 
	C23.531984,28.393669 27.706268,30.294527 31.968964,32.328617 
	C31.993275,33.467880 32.003658,34.226433 32.014042,34.984982 
z"/>
<path fill="#D8D8D8" opacity="1.000000" stroke="none" 
	d="
M26.817919,50.389702 
	C27.009155,50.352203 27.118179,50.401676 27.227203,50.451149 
	C27.063372,50.459660 26.899538,50.468170 26.817919,50.389702 
z"/>
<path fill="#242424" opacity="1.000000" stroke="none" 
	d="
M50.010284,86.977013 
	C50.004154,87.430489 49.998028,87.883972 49.675697,88.620407 
	C48.554066,88.264862 47.748631,87.626366 47.083679,86.686951 
	C48.433224,85.562355 49.650845,84.750885 50.848537,83.910988 
	C51.746563,83.281242 52.618958,82.614944 53.758896,81.724213 
	C54.668262,81.237206 55.321499,80.990906 56.215942,81.066673 
	C58.647255,81.621185 60.837357,81.853622 63.027458,82.086060 
	C63.021732,83.092484 63.016010,84.098915 62.561378,85.518410 
	C58.078411,86.279991 54.044346,86.628502 50.010284,86.977013 
z"/>
<path fill="#8C8C8C" opacity="1.000000" stroke="none" 
	d="
M79.108894,77.815521 
	C80.003555,78.285347 80.898216,78.755165 81.845718,79.544250 
	C79.237877,80.177475 76.582840,80.559166 73.914505,80.780952 
	C72.211769,80.922485 70.489365,80.827309 68.111359,80.835556 
	C65.596169,80.074989 63.745399,79.317131 62.136955,78.264236 
	C62.725548,77.294075 63.071808,76.618942 63.746433,75.968628 
	C68.968918,77.568214 73.746910,80.101128 79.108894,77.815521 
z"/>
<path fill="#454545" opacity="1.000000" stroke="none" 
	d="
M50.357124,87.141891 
	C54.044346,86.628502 58.078411,86.279991 62.576057,85.895721 
	C66.007416,85.663605 68.975189,85.467247 71.942963,85.270889 
	C71.926346,85.485466 71.909737,85.700043 71.893120,85.914619 
	C68.192581,87.260948 64.492043,88.607285 60.411919,89.952042 
	C56.922878,89.069244 53.813419,88.188011 50.357124,87.141891 
z"/>
<path fill="#454545" opacity="1.000000" stroke="none" 
	d="
M61.894627,78.559273 
	C63.745399,79.317131 65.596169,80.074989 67.769638,81.017784 
	C68.092323,81.202721 68.088478,81.644539 67.681961,81.831894 
	C66.517776,82.010262 65.760109,82.001266 65.002449,81.992271 
	C64.562378,81.995232 64.122299,81.998192 63.354843,82.043610 
	C60.837357,81.853622 58.647255,81.621185 56.446411,80.828415 
	C58.255322,79.698471 60.074974,79.128876 61.894627,78.559273 
z"/>
<path fill="#242424" opacity="1.000000" stroke="none" 
	d="
M65.066437,82.310272 
	C65.760109,82.001266 66.517776,82.010262 67.653732,82.051010 
	C67.064827,82.264587 66.097626,82.446426 65.066437,82.310272 
z"/>
<path fill="#141414" opacity="1.000000" stroke="none" 
	d="
M68.574234,96.204491 
	C68.538315,96.225624 68.610168,96.183365 68.574234,96.204491 
z"/>
<path fill="#727272" opacity="1.000000" stroke="none" 
	d="
M38.998291,68.921661 
	C43.474770,68.787537 47.951252,68.653412 52.711433,68.273438 
	C55.784309,69.892014 60.808128,66.892746 61.789017,72.577591 
	C61.373520,72.982964 61.195118,72.987617 60.642315,72.933914 
	C55.997894,73.176659 51.726368,73.460579 47.462841,73.835480 
	C47.272636,73.852211 47.155178,74.696259 46.666313,75.133286 
	C45.878666,75.135872 45.428539,75.160118 44.897133,74.901947 
	C42.876671,72.720245 40.937481,70.820953 38.998291,68.921661 
z"/>
<path fill="#7B7B7B" opacity="1.000000" stroke="none" 
	d="
M61.016720,72.992279 
	C61.195118,72.987617 61.373520,72.982964 61.820293,72.964668 
	C67.562576,74.422874 73.036484,75.894714 78.809647,77.591034 
	C73.746910,80.101128 68.968918,77.568214 63.491032,75.773712 
	C62.261738,75.046402 61.616215,74.538811 60.994617,73.772034 
	C61.017941,73.339325 61.017330,73.165802 61.016720,72.992279 
z"/>
<path fill="#636363" opacity="1.000000" stroke="none" 
	d="
M98.908897,71.497620 
	C98.075897,75.123772 95.603195,75.413162 92.361549,74.990234 
	C92.189995,73.622910 92.229355,71.206688 92.715904,71.112999 
	C94.666351,70.737457 96.755447,71.082054 98.908897,71.497620 
z"/>
<path fill="#636363" opacity="1.000000" stroke="none" 
	d="
M91.954803,76.273544 
	C92.025490,76.442368 92.105103,76.767670 92.089066,76.917526 
	C91.993431,76.742088 91.963730,76.430031 91.954803,76.273544 
z"/>
<path fill="#9F9F9F" opacity="1.000000" stroke="none" 
	d="
M38.608269,68.889732 
	C40.937481,70.820953 42.876671,72.720245 44.816353,75.224213 
	C40.374813,75.840363 35.931244,75.907318 31.492937,75.784286 
	C31.006805,75.770798 30.550947,74.665260 30.312759,74.052856 
	C30.544472,74.039490 31.007526,74.007019 31.384964,74.008873 
	C33.134052,73.931686 34.505707,73.852654 35.877361,73.773613 
	C35.989082,73.441109 36.100800,73.108597 36.212521,72.776093 
	C34.469246,71.860451 32.725967,70.944801 30.662056,69.950150 
	C30.139147,69.784279 29.936867,69.697395 29.734585,69.610519 
	C32.562473,69.359619 35.390358,69.108711 38.608269,68.889732 
z"/>
<path fill="#7B7B7B" opacity="1.000000" stroke="none" 
	d="
M11.358276,66.159424 
	C13.319742,64.947777 15.619696,63.908379 17.921425,62.495506 
	C22.917730,62.546288 27.912256,62.970543 32.906784,63.394802 
	C32.828590,63.619366 32.750401,63.843925 32.672207,64.068489 
	C29.232073,65.170364 25.791941,66.272240 22.168091,67.693878 
	C18.555172,67.452980 15.125969,66.892326 11.358276,66.159424 
z"/>
<path fill="#C1C1C1" opacity="1.000000" stroke="none" 
	d="
M29.484528,69.625809 
	C29.936867,69.697395 30.139147,69.784279 30.567476,70.308395 
	C27.536589,71.496468 24.279650,72.247307 21.022713,72.998146 
	C19.722597,72.246376 18.422483,71.494614 17.036240,70.425507 
	C20.478071,70.089989 24.006033,70.071800 27.883945,69.822342 
	C28.567419,69.607758 28.900946,69.624435 29.484528,69.625809 
z"/>
<path fill="#595959" opacity="1.000000" stroke="none" 
	d="
M22.030272,55.281944 
	C24.446100,55.939022 28.255678,53.384743 28.951992,58.613152 
	C27.973934,58.985470 26.892796,58.985916 25.406803,58.992580 
	C24.561998,58.988091 24.122047,58.977386 23.309914,58.642365 
	C22.635246,57.306019 22.332760,56.293980 22.030272,55.281944 
z"/>
<path fill="#E9E9E9" opacity="1.000000" stroke="none" 
	d="
M31.955036,31.947901 
	C27.706268,30.294527 23.531984,28.393669 19.179819,27.083855 
	C16.707857,26.339901 15.983980,27.994553 16.945557,30.638365 
	C12.269843,29.407042 13.898349,25.670887 13.474627,23.734743 
	C16.701632,23.734743 19.245293,23.734743 22.189035,23.504026 
	C23.726305,23.177507 24.863493,23.081705 26.389622,22.987440 
	C28.533567,22.638504 30.288572,22.288033 32.408848,21.958305 
	C33.526329,22.985834 34.278534,23.992619 34.689949,25.039316 
	C33.351582,25.669174 32.354004,26.259119 31.356424,26.849064 
	C31.637739,27.277948 31.919056,27.706833 32.200371,28.135719 
	C33.465603,27.429365 34.730831,26.723013 36.385834,26.019163 
	C38.164589,26.686083 39.553570,27.350500 40.631351,28.157146 
	C39.187103,29.443844 38.054054,30.588310 36.510345,31.780037 
	C34.718140,31.867500 33.336586,31.907700 31.955036,31.947901 
z"/>
<path fill="#E0E0E0" opacity="1.000000" stroke="none" 
	d="
M16.752237,8.248714 
	C20.345903,8.264273 21.561396,9.650483 19.781654,12.918574 
	C19.257027,13.881939 19.247177,15.125643 18.996027,16.625416 
	C18.074369,16.371077 16.469030,15.821626 16.372311,15.076379 
	C16.093151,12.925416 16.421951,10.695549 16.752237,8.248714 
z"/>
<path fill="#E0E0E0" opacity="1.000000" stroke="none" 
	d="
M26.000679,22.985905 
	C24.863493,23.081705 23.726305,23.177507 22.289013,23.146847 
	C21.019505,21.245584 20.050100,19.470785 19.035587,17.352392 
	C20.096399,17.311310 21.202318,17.613819 22.652533,18.209341 
	C22.996828,18.502352 23.000801,18.999441 23.057781,19.309996 
	C23.743359,20.080101 24.371956,20.539650 25.225334,21.183376 
	C25.633636,21.907003 25.817158,22.446453 26.000679,22.985905 
z"/>
<path fill="#8C8C8C" opacity="1.000000" stroke="none" 
	d="
M81.745163,36.678585 
	C79.782745,36.779305 77.820328,36.880020 75.430328,36.561554 
	C73.107162,30.572182 69.578239,25.192755 73.247963,18.998394 
	C73.495178,18.995358 73.989624,18.990610 73.989624,18.990610 
	C76.938095,18.806150 79.181984,18.083221 80.174850,14.634016 
	C81.228737,10.972800 86.320656,9.508539 92.706635,10.748611 
	C87.784126,14.733830 82.283669,18.127069 77.439514,22.284954 
	C73.560005,25.614862 74.274490,30.067177 78.615173,31.982380 
	C79.758690,31.993500 80.511047,31.994041 81.639954,31.981855 
	C86.785385,32.106117 91.554260,32.243107 96.649063,32.622734 
	C96.195984,33.248222 95.417000,33.631065 93.937073,34.039017 
	C92.513321,34.106972 91.790489,34.149826 90.658203,34.135597 
	C87.414207,34.945206 84.579689,35.811893 81.745163,36.678585 
z"/>
<path fill="#D4D4D4" opacity="1.000000" stroke="none" 
	d="
M23.000801,18.999441 
	C23.000801,18.999441 22.996828,18.502352 22.995173,18.253866 
	C23.849892,16.825470 24.462780,15.263245 25.606646,14.534739 
	C29.619209,11.979216 29.527321,8.578953 28.086708,4.347010 
	C31.783358,6.290563 35.522587,8.630320 39.944855,11.131618 
	C44.427654,12.844057 42.338333,15.612171 42.011768,18.011740 
	C42.006336,18.008661 42.013847,18.021490 41.704178,17.874121 
	C39.540928,16.582195 37.687351,15.437638 35.816727,14.282557 
	C34.990196,15.704147 34.278008,16.778509 33.720467,17.927887 
	C33.089149,19.229347 32.596512,20.598080 32.043575,21.937563 
	C30.288572,22.288033 28.533567,22.638504 26.389622,22.987438 
	C25.817158,22.446453 25.633636,21.907003 25.167978,20.872992 
	C24.257496,19.918766 23.629148,19.459105 23.000801,18.999441 
z"/>
<path fill="#CDCDCD" opacity="1.000000" stroke="none" 
	d="
M42.017200,18.014818 
	C42.338333,15.612171 44.427654,12.844057 40.310127,11.138756 
	C41.112789,10.630330 42.233223,10.276310 43.680069,9.961063 
	C44.313057,10.139101 44.565475,10.344815 44.883823,11.255972 
	C44.432690,14.142013 46.669365,17.759417 42.017200,18.014818 
z"/>
<path fill="#B7B7B7" opacity="1.000000" stroke="none" 
	d="
M21.073700,73.378738 
	C24.279650,72.247307 27.536589,71.496468 30.888107,70.387390 
	C32.725967,70.944801 34.469246,71.860451 36.212521,72.776093 
	C36.100800,73.108597 35.989082,73.441109 35.877361,73.773613 
	C34.505707,73.852654 33.134052,73.931686 31.219999,73.800018 
	C30.100946,73.527184 29.524294,73.465073 28.947643,73.402954 
	C29.325447,73.624046 29.703249,73.845139 30.081051,74.066231 
	C30.550947,74.665260 31.006805,75.770798 31.492937,75.784286 
	C35.931244,75.907318 40.374813,75.840363 44.897629,75.506622 
	C45.428539,75.160118 45.878666,75.135872 46.646046,75.483078 
	C46.965660,76.562103 46.968021,77.269669 46.857750,78.033485 
	C46.745117,78.089745 46.751217,78.425446 46.751217,78.425446 
	C46.751217,78.425446 47.024822,78.031616 47.357521,77.991516 
	C49.477222,77.662201 51.264229,77.372978 52.867058,77.302757 
	C51.129852,78.379295 49.799461,79.282280 51.688644,81.189034 
	C46.867397,81.797577 42.349716,82.121666 37.459122,82.414055 
	C36.094795,82.338707 35.103378,82.295059 34.111961,82.251419 
	C28.377443,81.861084 22.642925,81.470757 16.703783,80.757294 
	C19.009735,78.880524 24.009531,79.051872 21.073700,73.378738 
z"/>
<path fill="#B7B7B7" opacity="1.000000" stroke="none" 
	d="
M14.798550,79.958267 
	C11.847934,80.467758 8.630265,80.654144 5.164321,80.595634 
	C8.121196,80.112213 11.326346,79.873688 14.798550,79.958267 
z"/>
<path fill="#242424" opacity="1.000000" stroke="none" 
	d="
M37.391922,96.995193 
	C37.191856,95.903236 37.369331,94.808434 37.639477,93.141945 
	C36.109859,93.461205 34.928787,93.707726 33.409889,94.023026 
	C32.618149,94.060738 32.164238,94.029648 31.170696,93.776062 
	C30.080797,93.378059 29.530529,93.202560 29.031073,92.666107 
	C29.391224,90.889885 29.700562,89.474625 30.396940,88.056686 
	C33.784824,87.766548 36.781212,87.382973 39.788921,87.243561 
	C40.846909,87.194511 41.932636,87.743927 43.005173,88.419891 
	C43.004005,89.887039 43.003368,90.954399 43.002731,92.021751 
	C41.258305,93.678619 39.513878,95.335480 37.391922,96.995193 
z"/>
<path fill="#2D2D2D" opacity="1.000000" stroke="none" 
	d="
M43.456264,92.017258 
	C43.003368,90.954399 43.004005,89.887039 43.307194,88.370514 
	C44.103535,87.593391 44.597324,87.265442 45.399139,86.951294 
	C46.119171,86.972694 46.531185,86.980278 46.943195,86.987862 
	C47.748631,87.626366 48.554066,88.264862 49.666916,88.960434 
	C51.228710,89.399590 52.524925,89.686142 53.717899,90.208473 
	C54.230484,90.432907 54.528759,91.146790 54.924400,91.638306 
	C54.479630,91.768738 54.034863,91.899170 53.282936,92.055656 
	C49.953789,92.058731 46.931797,92.035751 43.456264,92.017258 
z"/>
<path fill="#1A1A1A" opacity="1.000000" stroke="none" 
	d="
M50.989967,95.386520 
	C50.724232,95.570862 50.357441,95.596947 49.990646,95.623024 
	C50.290066,95.491440 50.589485,95.359856 50.989967,95.386520 
z"/>
<path fill="#8C8C8C" opacity="1.000000" stroke="none" 
	d="
M95.040192,11.343605 
	C95.830849,11.203860 96.690544,11.369895 97.776375,11.780855 
	C97.038086,11.900315 96.073654,11.774851 95.040192,11.343605 
z"/>
<path fill="#A8A8A8" opacity="1.000000" stroke="none" 
	d="
M68.009254,36.961220 
	C64.650269,37.257938 61.291290,37.554657 57.483192,37.432281 
	C57.937710,34.328178 58.841343,31.643164 59.948257,28.354120 
	C57.626751,29.194540 56.062069,29.760977 54.405563,30.360657 
	C52.892570,23.882938 57.592323,25.698013 61.130104,25.517855 
	C60.368359,21.740219 59.689636,18.374311 59.352127,14.991201 
	C60.478638,14.348001 61.263935,13.722004 62.049232,13.096004 
	C62.477768,13.052327 62.906300,13.008652 63.954643,13.096892 
	C66.048431,13.822453 67.522400,14.416096 68.995842,15.258009 
	C68.995308,15.506279 68.997719,16.002817 68.671677,16.155090 
	C65.189659,17.977812 65.423721,20.361065 66.943375,23.338840 
	C66.944374,24.099361 66.937668,24.534054 66.581375,25.078377 
	C66.226471,27.348631 65.988617,29.541992 66.286758,31.659893 
	C66.541847,33.471920 67.411453,35.197437 68.009254,36.961220 
z"/>
<path fill="#C1C1C1" opacity="1.000000" stroke="none" 
	d="
M42.011768,18.011740 
	C46.669365,17.759417 44.432690,14.142013 45.001190,11.472689 
	C48.001972,11.402247 51.005466,11.754082 54.473137,12.442646 
	C54.954552,13.198837 54.971790,13.618301 54.756897,14.320484 
	C52.818550,17.803165 52.272964,21.998602 47.435635,22.518890 
	C47.023651,22.563202 46.291626,25.035364 46.565071,25.241148 
	C50.891602,28.497108 48.734814,32.992195 48.998539,37.002121 
	C48.569126,37.017887 48.139717,37.033649 47.036015,36.985054 
	C44.568314,35.265057 42.774906,33.609417 41.328362,31.873272 
	C42.132374,30.527977 42.589520,29.263187 43.255058,27.787792 
	C41.636925,24.595736 40.720810,21.476177 42.013847,18.021490 
	C42.013847,18.021490 42.006336,18.008661 42.011768,18.011740 
z"/>
<path fill="#B3B3B3" opacity="1.000000" stroke="none" 
	d="
M68.997719,16.002817 
	C68.997719,16.002817 68.995308,15.506279 69.301819,15.196073 
	C69.684280,14.308948 69.901131,13.250960 69.815460,13.225868 
	C67.951241,12.679858 66.053352,12.248821 64.161934,11.795677 
	C64.118279,11.110603 64.074631,10.425530 64.060280,9.399023 
	C65.259682,7.639341 66.429771,6.221093 67.706017,4.674184 
	C69.111206,4.803816 70.776268,4.957421 72.760544,5.489285 
	C73.592850,6.849070 74.186279,7.797600 74.605339,8.817760 
	C76.553482,13.560385 74.291763,16.438528 68.997719,16.002817 
z"/>
<path fill="#D4D4D4" opacity="1.000000" stroke="none" 
	d="
M64.102356,12.064838 
	C66.053352,12.248821 67.951241,12.679858 69.815460,13.225868 
	C69.901131,13.250960 69.684280,14.308948 69.302353,14.947803 
	C67.522400,14.416096 66.048431,13.822453 64.274994,13.055022 
	C63.997944,12.698824 64.020363,12.516413 64.102356,12.064838 
z"/>
<path fill="#C1C1C1" opacity="1.000000" stroke="none" 
	d="
M61.744892,12.941383 
	C61.263935,13.722004 60.478638,14.348001 59.085949,14.978426 
	C58.301559,14.968770 58.124557,14.954688 57.961098,14.594967 
	C58.036674,13.565566 58.098713,12.881804 58.160751,12.198042 
	C59.254021,12.394281 60.347282,12.590522 61.744892,12.941383 
z"/>
<path fill="#D4D4D4" opacity="1.000000" stroke="none" 
	d="
M58.034065,8.347952 
	C58.418892,8.018528 58.854599,7.997186 59.615944,7.957539 
	C60.193417,8.675840 60.445259,9.412446 60.697102,10.149052 
	C60.447769,10.335383 60.198441,10.521716 59.949112,10.708048 
	C59.327724,10.024043 58.706337,9.340038 58.034065,8.347952 
z"/>
<path fill="#D4D4D4" opacity="1.000000" stroke="none" 
	d="
M57.750301,12.142239 
	C58.098713,12.881804 58.036674,13.565566 57.672165,14.481234 
	C56.576141,14.488013 55.782585,14.262889 54.989029,14.037765 
	C54.971790,13.618301 54.954552,13.198837 54.899780,12.469197 
	C55.688118,12.134826 56.513985,12.110631 57.750301,12.142239 
z"/>
<path fill="#9F9F9F" opacity="1.000000" stroke="none" 
	d="
M68.671677,16.155090 
	C74.291763,16.438528 76.553482,13.560385 74.605339,8.817760 
	C74.186279,7.797600 73.592850,6.849070 73.084503,5.493636 
	C73.513657,5.092912 73.938049,5.066097 74.681534,5.019866 
	C77.354973,4.230254 79.859436,2.372610 81.255615,6.461379 
	C81.480446,7.119796 83.422386,7.191878 84.785141,7.768597 
	C84.754440,8.211061 84.542549,8.509350 84.258842,8.615219 
	C80.691704,9.946353 76.293053,10.245498 76.382378,15.771150 
	C76.396339,16.635475 75.037880,17.521986 74.151825,18.694426 
	C73.989624,18.990610 73.495178,18.995358 72.888397,19.003826 
	C70.499626,20.345867 68.717651,21.679438 66.935669,23.013008 
	C65.423721,20.361065 65.189659,17.977812 68.671677,16.155090 
z"/>
<path fill="#A8A8A8" opacity="1.000000" stroke="none" 
	d="
M93.809906,3.811427 
	C92.525276,4.756988 91.041115,5.473996 89.273895,6.045728 
	C90.530685,5.127926 92.070526,4.355400 93.809906,3.811427 
z"/>
<path fill="#1A1A1A" opacity="1.000000" stroke="none" 
	d="
M30.009899,88.059357 
	C29.700562,89.474625 29.391224,90.889885 28.605722,92.660309 
	C25.089754,93.352036 22.049950,93.688606 19.010145,94.025177 
	C17.176474,95.234055 14.255030,91.209412 12.987539,95.620682 
	C12.525249,95.973595 12.089788,95.977203 11.327312,95.980911 
	C10.193491,95.910378 9.386683,95.839737 8.324884,95.888336 
	C6.891475,95.474892 5.713057,94.942215 5.201285,94.710876 
	C6.202254,93.287827 7.140464,91.954002 8.041583,90.306358 
	C9.484593,89.275940 10.964695,88.559334 13.569809,87.298042 
	C10.717627,85.904144 9.426998,85.273399 8.067585,84.322769 
	C12.177795,84.099327 16.356789,84.195755 20.544590,84.831497 
	C18.392389,85.888344 16.231379,86.405884 14.070369,86.923424 
	C17.763111,88.486984 21.216358,89.180725 24.699265,89.657990 
	C25.074682,89.709435 25.622305,88.504158 26.090050,87.881836 
	C26.800045,87.647408 27.510038,87.412979 28.734549,87.179047 
	C29.502676,87.472816 29.756289,87.766090 30.009899,88.059357 
M10.515294,92.741905 
	C10.798265,92.939224 11.081237,93.136543 11.364211,93.333862 
	C11.182503,93.040733 11.000794,92.747597 10.515294,92.741905 
z"/>
<path fill="#0D0D0D" opacity="1.000000" stroke="none" 
	d="
M30.396938,88.056686 
	C29.756289,87.766090 29.502676,87.472816 28.986887,87.041382 
	C30.508560,85.582474 32.292408,84.261719 34.094109,82.596191 
	C35.103378,82.295059 36.094795,82.338707 37.561272,82.756958 
	C40.387932,84.400208 42.739525,85.668854 45.091118,86.937500 
	C44.597324,87.265442 44.103535,87.593391 43.307716,87.970711 
	C41.932636,87.743927 40.846909,87.194511 39.788921,87.243561 
	C36.781212,87.382973 33.784824,87.766548 30.396938,88.056686 
z"/>
<path fill="#080808" opacity="1.000000" stroke="none" 
	d="
M25.876404,87.714813 
	C25.622305,88.504158 25.074682,89.709435 24.699265,89.657990 
	C21.216358,89.180725 17.763111,88.486984 14.070369,86.923424 
	C16.231379,86.405884 18.392389,85.888344 20.825066,85.066292 
	C22.618744,85.690445 24.140753,86.619110 25.876404,87.714813 
z"/>
<path fill="#0D0D0D" opacity="1.000000" stroke="none" 
	d="
M95.551926,93.747482 
	C96.518265,94.298645 97.259071,95.073524 97.999878,95.848404 
	C97.500916,96.148888 97.001953,96.449371 96.502991,96.749855 
	C96.110794,95.823631 95.718605,94.897408 95.551926,93.747482 
z"/>
<path fill="#080808" opacity="1.000000" stroke="none" 
	d="
M19.041584,94.316833 
	C22.049950,93.688606 25.089754,93.352036 28.554911,93.021263 
	C29.530529,93.202560 30.080797,93.378059 30.830151,93.769089 
	C29.629417,94.820587 28.307350,96.128220 26.810400,96.374985 
	C24.872576,96.694435 22.795246,96.167618 20.400938,96.014961 
	C19.706940,95.552673 19.389982,95.080582 19.041584,94.316833 
z"/>
<path fill="#1A1A1A" opacity="1.000000" stroke="none" 
	d="
M17.233891,98.966927 
	C17.008755,98.985718 17.007343,98.500648 17.008625,98.258308 
	C17.390385,98.175659 17.770866,98.335350 18.151348,98.495033 
	C17.920574,98.646065 17.689800,98.797096 17.233891,98.966927 
z"/>
<path fill="#636363" opacity="1.000000" stroke="none" 
	d="
M21.655067,55.191753 
	C22.332760,56.293980 22.635246,57.306019 22.980042,58.631821 
	C20.211893,58.791523 17.401440,58.637459 14.307178,58.194389 
	C15.614489,57.221729 17.205606,56.538082 18.886414,55.526520 
	C19.744024,55.166256 20.511944,55.133911 21.655067,55.191753 
z"/>
<path fill="#C1C1C1" opacity="1.000000" stroke="none" 
	d="
M91.067665,34.192680 
	C91.790489,34.149826 92.513321,34.106972 93.596924,34.088116 
	C93.967537,34.839642 93.977379,35.567177 93.973747,36.660618 
	C93.216667,37.017002 92.473053,37.007477 91.359985,36.640800 
	C91.016243,35.586662 91.041954,34.889671 91.067665,34.192680 
z"/>
<path fill="#929292" opacity="1.000000" stroke="none" 
	d="
M66.943375,23.338840 
	C68.717651,21.679438 70.499626,20.345867 72.641174,19.006863 
	C69.578239,25.192755 73.107162,30.572182 75.008102,36.520081 
	C73.929825,36.939060 72.846176,36.980335 71.356094,37.061005 
	C70.949661,37.100399 71.039032,36.924911 71.045792,36.447124 
	C70.111618,33.660759 69.135063,31.365822 68.243538,29.038317 
	C67.734436,27.709209 67.363892,26.327028 66.930962,24.968744 
	C66.937668,24.534054 66.944374,24.099361 66.943375,23.338840 
z"/>
<path fill="#B3B3B3" opacity="1.000000" stroke="none" 
	d="
M90.658203,34.135597 
	C91.041954,34.889671 91.016243,35.586662 90.987564,36.634506 
	C88.185524,36.945427 85.386459,36.905499 82.166275,36.772076 
	C84.579689,35.811893 87.414207,34.945206 90.658203,34.135597 
z"/>
<path fill="#B3B3B3" opacity="1.000000" stroke="none" 
	d="
M54.756897,14.320484 
	C55.782585,14.262889 56.576141,14.488013 57.658630,14.826872 
	C58.124557,14.954688 58.301559,14.968770 58.744736,14.995627 
	C59.689636,18.374311 60.368359,21.740219 61.130104,25.517855 
	C57.592323,25.698013 52.892570,23.882938 54.405563,30.360657 
	C56.062069,29.760977 57.626751,29.194540 59.948257,28.354120 
	C58.841343,31.643164 57.937710,34.328178 57.049156,37.392410 
	C54.647156,37.521240 52.230087,37.270844 49.405777,37.011284 
	C48.734814,32.992195 50.891602,28.497108 46.565071,25.241148 
	C46.291626,25.035364 47.023651,22.563202 47.435635,22.518890 
	C52.272964,21.998602 52.818550,17.803165 54.756897,14.320484 
z"/>
<path fill="#C7C7C7" opacity="1.000000" stroke="none" 
	d="
M40.981499,31.953775 
	C42.774906,33.609417 44.568314,35.265057 46.713730,36.987587 
	C47.040009,37.784149 47.014275,38.513817 46.976505,39.608498 
	C43.765160,38.862125 40.574543,37.724758 37.362766,36.650673 
	C35.830650,36.138302 34.258327,35.746185 32.359131,35.142288 
	C32.003658,34.226433 31.993275,33.467880 31.968964,32.328617 
	C33.336586,31.907700 34.718140,31.867500 36.914402,31.852505 
	C38.813244,31.903067 39.897369,31.928421 40.981499,31.953775 
z"/>
<path fill="#9F9F9F" opacity="1.000000" stroke="none" 
	d="
M66.581375,25.078377 
	C67.363892,26.327028 67.734436,27.709209 68.243538,29.038317 
	C69.135063,31.365822 70.111618,33.660759 71.083374,36.356110 
	C70.338608,36.825779 69.563019,36.908684 68.398346,36.976402 
	C67.411453,35.197437 66.541847,33.471920 66.286758,31.659893 
	C65.988617,29.541992 66.226471,27.348631 66.581375,25.078377 
z"/>
<path fill="#CDCDCD" opacity="1.000000" stroke="none" 
	d="
M51.992207,80.904579 
	C49.799461,79.282280 51.129852,78.379295 53.172668,77.123917 
	C56.098534,75.827789 58.534611,74.929504 60.970688,74.031227 
	C61.616215,74.538811 62.261738,75.046402 63.162666,75.748901 
	C63.071808,76.618942 62.725548,77.294075 62.136955,78.264236 
	C60.074974,79.128876 58.255322,79.698471 56.205200,80.506332 
	C55.321499,80.990906 54.668262,81.237206 53.411926,81.414886 
	C52.536625,81.199043 52.264416,81.051811 51.992207,80.904579 
z"/>
<path fill="#454545" opacity="1.000000" stroke="none" 
	d="
M51.688644,81.189034 
	C52.264416,81.051811 52.536625,81.199043 53.155796,81.655594 
	C52.618958,82.614944 51.746563,83.281242 50.848537,83.910988 
	C49.650845,84.750885 48.433224,85.562355 47.083679,86.686951 
	C46.531185,86.980278 46.119171,86.972694 45.399139,86.951309 
	C42.739525,85.668854 40.387932,84.400208 37.934185,82.788658 
	C42.349716,82.121666 46.867397,81.797577 51.688644,81.189034 
z"/>
<path fill="#9F9F9F" opacity="1.000000" stroke="none" 
	d="
M60.994617,73.772034 
	C58.534611,74.929504 56.098534,75.827789 53.356846,76.904907 
	C51.264229,77.372978 49.477222,77.662201 47.345146,77.976646 
	C47.000080,78.001869 46.970379,77.977226 46.970379,77.977226 
	C46.968021,77.269669 46.965660,76.562103 46.983566,75.504745 
	C47.155178,74.696259 47.272636,73.852211 47.462841,73.835480 
	C51.726368,73.460579 55.997894,73.176659 60.642315,72.933914 
	C61.017330,73.165802 61.017941,73.339325 60.994617,73.772034 
z"/>
<path fill="#C1C1C1" opacity="1.000000" stroke="none" 
	d="
M30.312761,74.052856 
	C29.703249,73.845139 29.325447,73.624046 28.947643,73.402954 
	C29.524294,73.465073 30.100946,73.527184 30.842564,73.798157 
	C31.007526,74.007019 30.544472,74.039490 30.312761,74.052856 
z"/>
<path fill="#CDCDCD" opacity="1.000000" stroke="none" 
	d="
M41.704178,17.874121 
	C40.720810,21.476177 41.636925,24.595736 42.904129,27.788971 
	C41.877392,28.005476 41.409969,28.010195 40.942551,28.014915 
	C39.553570,27.350500 38.164589,26.686083 36.272476,25.807800 
	C35.577835,25.327805 35.331638,25.129629 35.030743,24.999403 
	C34.278534,23.992619 33.526329,22.985834 32.408848,21.958305 
	C32.596512,20.598080 33.089149,19.229347 33.720467,17.927887 
	C34.278008,16.778509 34.990196,15.704147 35.816727,14.282557 
	C37.687351,15.437638 39.540928,16.582195 41.704178,17.874121 
z"/>
<path fill="#E0E0E0" opacity="1.000000" stroke="none" 
	d="
M40.631351,28.157146 
	C41.409969,28.010195 41.877392,28.005476 42.695740,27.999577 
	C42.589520,29.263187 42.132374,30.527977 41.328362,31.873272 
	C39.897369,31.928421 38.813244,31.903067 37.325058,31.805244 
	C38.054054,30.588310 39.187103,29.443844 40.631351,28.157146 
z"/>
<path fill="#E0E0E0" opacity="1.000000" stroke="none" 
	d="
M34.689949,25.039316 
	C35.331638,25.129629 35.577835,25.327805 35.882698,25.805294 
	C34.730831,26.723013 33.465603,27.429365 32.200371,28.135719 
	C31.919056,27.706833 31.637739,27.277948 31.356424,26.849064 
	C32.354004,26.259119 33.351582,25.669174 34.689949,25.039316 
z"/>
<path fill="#D8D8D8" opacity="1.000000" stroke="none" 
	d="
M23.057781,19.309996 
	C23.629148,19.459105 24.257496,19.918766 24.943199,20.688814 
	C24.371956,20.539650 23.743359,20.080101 23.057781,19.309996 
z"/>
<path fill="#9F9F9F" opacity="1.000000" stroke="none" 
	d="
M47.012451,78.016739 
	C47.024822,78.031616 46.751217,78.425446 46.751217,78.425446 
	C46.751217,78.425446 46.745117,78.089745 46.857750,78.033485 
	C46.970379,77.977226 47.000080,78.001869 47.012451,78.016739 
z"/>
<path fill="#242424" opacity="1.000000" stroke="none" 
	d="
M10.667191,92.598190 
	C11.000794,92.747597 11.182503,93.040733 11.364210,93.333862 
	C11.081237,93.136543 10.798265,92.939224 10.667191,92.598190 
z"/>
</svg>